HIERARCHY
ROOT Hips
{
  OFFSET 3.13124 94.3669 -3.18751
  CHANNELS  6 Xposition Yposition Zposition Zrotation Xrotation Yrotation
  JOINT LeftUpLeg
  {
    OFFSET 8.64259 1.95398 -2.38835
    CHANNELS 3 Zrotation Xrotation Yrotation
    JOINT LeftLeg
    {
      OFFSET 43.7702 0 0
      CHANNELS 3 Zrotation Xrotation Yrotation
      JOINT LeftFoot
      {
        OFFSET 40.6238 0 0
        CHANNELS 3 Zrotation Xrotation Yrotation
        JOINT LeftToeBase
        {
          OFFSET 12.7242 0 0
          CHANNELS 3 Zrotation Xrotation Yrotation
          End Site
          {
            OFFSET 0 0 0
          }
        }
      }
    }
  }
  JOINT RightUpLeg
  {
    OFFSET -8.2249 1.95398 -2.59336
    CHANNELS 3 Zrotation Xrotation Yrotation
    JOINT RightLeg
    {
      OFFSET 43.5653 0 0
      CHANNELS 3 Zrotation Xrotation Yrotation
      JOINT RightFoot
      {
        OFFSET 40.6238 0 0
        CHANNELS 3 Zrotation Xrotation Yrotation
        JOINT RightToeBase
        {
          OFFSET 12.7242 0 0
          CHANNELS 3 Zrotation Xrotation Yrotation
          End Site
          {
            OFFSET 0 0 0
          }
        }
      }
    }
  }
  JOINT Spine
  {
    OFFSET 0.165834 0.87714 6.61349
    CHANNELS 3 Zrotation Xrotation Yrotation
    JOINT Spine1
    {
      OFFSET 7.38962 1.71661e-005 0
      CHANNELS 3 Zrotation Xrotation Yrotation
      JOINT Spine2
      {
        OFFSET 11.9445 1.14441e-005 0
        CHANNELS 3 Zrotation Xrotation Yrotation
        JOINT Spine3
        {
          OFFSET 14.7254 4.19617e-005 0
          CHANNELS 3 Zrotation Xrotation Yrotation
          JOINT Spine4
          {
            OFFSET 10.9679 0 0
            CHANNELS 3 Zrotation Xrotation Yrotation
            JOINT RightShoulder
            {
              OFFSET 2.46616 -1.6653 3.69651
              CHANNELS 3 Zrotation Xrotation Yrotation
              JOINT RightArm
              {
                OFFSET 13.0012 0 0
                CHANNELS 3 Zrotation Xrotation Yrotation
                JOINT RightForeArm
                {
                  OFFSET 28.7848 1.52588e-005 0
                  CHANNELS 3 Zrotation Xrotation Yrotation
                  JOINT RightHand
                  {
                    OFFSET 26.5688 1.52588e-005 0
                    CHANNELS 3 Zrotation Xrotation Yrotation
                    End Site
                    {
                      OFFSET 0 0 0
                    }
                  }
                }
              }
            }
            JOINT LeftShoulder
            {
              OFFSET 2.38034 -1.29275 -3.75231
              CHANNELS 3 Zrotation Xrotation Yrotation
              JOINT LeftArm
              {
                OFFSET 16.3182 6.10352e-005 0
                CHANNELS 3 Zrotation Xrotation Yrotation
                JOINT LeftForeArm
                {
                  OFFSET 27.0901 0 0
                  CHANNELS 3 Zrotation Xrotation Yrotation
                  JOINT LeftHand
                  {
                    OFFSET 24.5451 1.52588e-005 0
                    CHANNELS 3 Zrotation Xrotation Yrotation
                    End Site
                    {
                      OFFSET 0 0 0
                    }
                  }
                }
              }
            }
            JOINT Neck
            {
              OFFSET 5.0226 -0.0266342 0
              CHANNELS 3 Zrotation Xrotation Yrotation
              JOINT Head
              {
                OFFSET 6.69363 2.86102e-005 0
                CHANNELS 3 Zrotation Xrotation Yrotation
                End Site
                {
                  OFFSET 0 0 0
                }
              }
            }
          }
        }
      }
    }
  }
}
MOTION
Frames:	16
Frame Time:	0.0333333
23.6188 93.8474 -4.23519 22.3115 -85.9438 14.7877 -171.571 -1.00831 94.7016 -14.1913 -5.595 2.09019 41.2932 -6.77556 -6.63076 28.7808 6.53616e-006 3.62806e-006 177.621 20.1421 80.8477 -22.6017 42.0614 3.29476 60.0012 -6.75881 -4.13458 28.7808 1.06374e-005 1.28174e-005 -0.77012 6.41189 -90.4944 14.0815 -1.41018 0.916252 2.41091 -1.3685 0.977425 -20.1295 -1.62034 0.45001 -0.116895 -1.62036 0.449988 90.0384 -48.6652 -101.079 24.6507 16.2265 10.4704 4.47774 9.31409 -42.3177 1.72983 0.565781 23.3341 -125.069 -70.1803 41.0816 -13.0539 -21.7048 -41.9281 -1.25568 -11.6833 -19.2227 5.02765 0.390349 3.33849 0.0415254 5.94371 17.1789 2.41093 4.6021 31.7465 
24.6157 93.5636 -5.2649 52.2564 -84.0139 46.0373 -171.558 -0.112296 95.2222 -13.4934 -3.76157 2.47408 43.0971 -7.35699 -6.8601 28.7808 6.53616e-006 3.62806e-006 177.732 20.4297 80.9807 -23.3171 45.3579 3.7517 59.1083 -6.04242 -3.7584 28.7808 1.06374e-005 1.28174e-005 -0.63622 6.34161 -90.7238 14.2171 -1.25723 0.582212 2.54658 -1.2304 0.636985 -19.9933 -1.37408 0.177397 0.0193616 -1.37409 0.177368 89.4034 -48.0065 -102.231 23.4057 16.8837 7.68461 1.99951 6.42099 -41.636 3.37766 0.924467 21.6924 -121.358 -69.6987 45.073 -12.5223 -20.9718 -49.1933 2.1106 -8.45008 -3.12795 6.14021 -0.379803 -8.08096 -2.0033 5.87671 17.2566 1.68625 4.63738 31.8858 
25.6827 93.4084 -6.23801 65.5625 -81.9226 60.7493 -171.652 0.662576 95.8643 -13.6182 -5.28509 2.92287 47.2575 -7.71176 -6.54822 28.7808 6.53616e-006 3.62806e-006 177.785 19.8954 81.2546 -22.9886 48.1783 4.19621 57.8794 -5.71185 -3.61174 28.7808 1.06374e-005 1.28174e-005 -0.474207 6.28657 -90.8488 14.3177 -1.04107 0.135685 2.64719 -1.03409 0.181386 -19.8912 -1.03372 -0.183493 0.121385 -1.03373 -0.183507 88.9994 -47.3136 -103.045 21.6936 17.8291 3.4598 0.914904 5.40003 -39.9345 3.84687 1.07094 22.525 -117.766 -69.1408 48.9617 -12.9471 -20.6266 -48.9443 2.13236 -6.40492 -3.31677 8.86123 -0.467114 -8.14475 -4.41247 5.66112 17.8246 0.981656 4.52995 31.2054 
26.8377 93.2379 -7.19374 73.6283 -80.0514 70.232 -171.34 1.02915 96.6356 -13.7519 -6.00033 3.05614 51.929 -8.22712 -6.28194 28.7808 6.53616e-006 3.62806e-006 177.929 19.2569 81.5096 -22.9831 50.7208 4.64046 56.6718 -5.24252 -3.34987 28.7808 1.06374e-005 1.28174e-005 -0.291006 6.2188 -90.9803 14.4434 -0.789606 -0.438983 2.77258 -0.808161 -0.4038 -19.7633 -0.621171 -0.655988 0.249401 -0.621191 -0.656022 88.6194 -46.072 -103.986 20.0866 18.7627 -0.0222278 0.452339 5.16471 -37.9456 2.78606 0.745478 20.5531 -116.033 -69.3309 51.0592 -12.4764 -22.0992 -39.4573 1.71823 -1.8888 -19.9966 1.54831 0.0775642 0.300063 -7.54221 5.15656 19.26 0.58737 4.29567 29.7242 
28.1926 93.032 -8.33407 77.9453 -77.8825 75.6976 -171.27 1.7883 96.8904 -13.929 -7.41376 2.94628 56.7674 -7.92192 -5.41643 28.7808 6.53616e-006 3.62806e-006 177.921 18.943 81.2933 -22.9994 52.7778 5.04095 55.2694 -4.6808 -3.02181 28.7808 1.06374e-005 1.28174e-005 -0.130558 6.16807 -91.0866 14.5383 -0.566045 -0.870438 2.86721 -0.603813 -0.84469 -19.6663 -0.27829 -1.00031 0.346336 -0.278304 -1.00032 88.6613 -45.3218 -104.129 18.4524 19.8179 -4.37517 1.26522 6.70573 -36.4179 1.78435 0.518828 20.5108 -112.818 -69.3226 54.8168 -12.9654 -21.9653 -36.2641 1.95249 -0.978063 -25.0092 2.49723 0.235705 3.22433 -8.96742 5.02437 19.3947 -1.29945 3.93536 28.8877 
29.6438 92.9403 -9.35984 82.3207 -75.8492 81.1819 -171.145 2.45209 97.1724 -14.8176 -8.03033 2.83106 60.4326 -7.50279 -4.70352 28.7808 6.53616e-006 3.62806e-006 177.737 17.5019 81.097 -21.7663 54.5397 5.4238 53.5452 -4.54765 -2.97262 28.7808 1.06374e-005 1.28174e-005 0.0214024 6.16217 -91.1842 14.5459 -0.35123 -1.31759 2.8744 -0.408889 -1.30085 -19.6554 0.0609439 -1.36223 0.357262 0.0609401 -1.36224 88.8106 -44.6716 -104.074 17.0533 20.7806 -8.4566 2.59877 9.24783 -34.9554 -0.0241185 0.0984299 19.1108 -109.719 -69.6696 58.5987 -13.4449 -21.4774 -35.1601 1.69677 -1.54734 -25.7449 6.97894 0.725292 5.55869 -10.2179 4.81105 19.8364 -3.26016 3.47336 27.2518 
31.2857 92.8885 -10.5284 85.9765 -73.7298 85.2467 -171.407 2.87837 96.574 -15.7331 -7.63068 2.81759 63.5302 -6.48679 -3.75855 28.7808 6.53616e-006 3.62806e-006 177.104 15.6035 80.1485 -19.4371 55.5562 5.67178 51.4278 -5.27536 -3.57374 28.7808 1.06374e-005 1.28174e-005 0.171439 6.15859 -91.2796 14.5532 -0.114137 -1.61357 2.88125 -0.185026 -1.60699 -19.6461 0.376031 -1.5733 0.366606 0.376004 -1.5733 89.2114 -43.9282 -103.625 16.0168 21.7956 -10.0461 4.36836 11.4155 -36.5101 -0.014463 0.0898839 16.8151 -107.234 -70.2077 61.7238 -13.0901 -22.0159 -31.7511 -0.41985 -5.38977 -29.9683 8.7899 1.3205 10.2018 -11.6749 4.50864 19.9591 -5.07881 3.05445 26.0855 
33.0231 92.8608 -11.7954 89.9415 -71.4678 89.2678 -171.817 2.95832 95.662 -16.8115 -6.78512 2.85124 66.1331 -5.33444 -2.86284 28.7808 6.53616e-006 3.62806e-006 175.664 11.9338 78.9314 -13.8476 56.2431 5.85691 48.381 -6.97878 -5.03397 28.7808 1.06374e-005 1.28174e-005 0.30412 6.20831 -91.416 14.4513 0.120013 -1.80911 2.77909 0.0402715 -1.81265 -19.747 0.658088 -1.68946 0.265649 0.658081 -1.68948 89.4745 -43.3614 -103.351 15.118 23.0398 -10.5544 7.84636 14.4077 -40.7078 0.968101 0.324355 19.8636 -104.879 -70.7132 64.6751 -12.4795 -22.7032 -25.7313 -1.07446 -5.42856 -35.5375 5.90612 1.16936 13.0336 -13.1357 3.6328 20.5318 -6.13938 2.31733 23.4021 
34.8195 92.6735 -13.0261 92.7755 -69.2536 91.9548 -172.499 3.40074 94.3855 -18.8884 -5.34581 3.24334 68.7961 -4.53025 -2.22305 28.7808 6.53616e-006 3.62806e-006 174.819 10.2995 77.3713 -12.7542 56.8101 5.99675 46.7868 -6.90314 -5.05522 28.7808 1.06374e-005 1.28174e-005 0.444268 6.24528 -91.4057 14.3782 0.362585 -2.04617 2.70565 0.272196 -2.06014 -19.8189 0.960669 -1.84284 0.193766 0.960682 -1.84284 89.7478 -42.7691 -103.085 15.2442 23.1477 -11.704 10.6744 17.4315 -42.1033 -1.69627 -0.233293 16.3268 -104.377 -71.7631 65.5926 -11.6104 -22.5886 -26.3181 -0.27014 -5.46064 -28.2118 12.6383 2.53021 15.3276 -14.8847 3.34688 22.1333 -7.91336 2.20362 19.8327 
36.5584 92.5141 -14.2015 94.5802 -67.2523 93.426 -173.281 3.80053 92.7997 -20.6532 -4.73778 3.60211 70.5439 -3.50607 -1.58928 28.7808 6.53616e-006 3.62806e-006 173.837 8.75562 75.6402 -11.1504 57.1016 6.06757 45.0852 -6.8521 -5.09175 28.7808 1.06374e-005 1.28174e-005 0.568215 6.23656 -91.3398 14.3975 0.598893 -2.21582 2.7248 0.500813 -2.24008 -19.7993 1.23704 -1.93197 0.213332 1.23704 -1.93199 89.4198 -42.6214 -103.654 15.2577 23.5114 -11.0799 15.1454 20.5838 -45.9149 -2.91763 -0.415015 14.2733 -103.969 -72.9967 66.4438 -9.68177 -23.6342 -21.1092 -3.45608 -11.685 -28.9173 12.7476 1.68929 8.98439 -17.2654 2.35455 22.9013 -8.64443 1.78537 16.5541 
38.1841 92.3856 -15.2946 95.821 -65.4371 94.0031 -173.866 4.06861 91.1052 -22.0597 -3.66027 3.70038 71.4659 -2.65231 -1.12362 28.7808 6.53616e-006 3.62806e-006 172.708 7.45896 73.6667 -9.55922 57.1061 6.06247 43.3135 -6.62245 -4.97939 28.7808 1.06374e-005 1.28174e-005 0.707439 6.24387 -91.1682 14.3888 0.904001 -2.2636 2.71616 0.803516 -2.30041 -19.8097 1.54226 -1.88704 0.202917 1.54224 -1.88706 89.2095 -43.2302 -103.816 16.1619 22.8113 -11.6743 17.2781 22.526 -46.8703 -5.83672 -0.688877 9.24217 -103.976 -74.3681 66.8432 -7.06925 -24.504 -16.5154 -2.6821 -11.4551 -26.0628 12.4199 1.2971 6.25957 -18.3806 2.01917 23.1164 -11.2594 1.60624 12.9317 
39.6956 92.234 -16.3148 96.6054 -63.6052 93.8683 -174.468 4.33447 89.2488 -23.3149 -2.6212 3.67118 71.8999 -1.88932 -0.739375 28.7808 6.53616e-006 3.62806e-006 171.558 6.83796 71.4411 -8.82339 56.6428 5.9424 41.3742 -6.11804 -4.65434 28.7808 1.06374e-005 1.28174e-005 0.852117 6.25768 -90.9489 14.3692 1.24991 -2.18958 2.69693 1.15233 -2.2425 -19.8331 1.85007 -1.71282 0.179536 1.85006 -1.71284 89.3705 -44.1458 -103.306 16.7843 22.6829 -10.3075 22.442 24.3101 -51.9718 -5.01406 -0.55578 8.58159 -102.895 -75.5274 68.4101 -4.24468 -25.2382 -9.26616 -3.73409 -13.6376 -26.4398 9.25295 0.28262 -0.715658 -19.0368 1.86698 23.0064 -14.079 1.66818 8.85878 
41.0025 92.1152 -17.2964 96.9701 -61.5584 93.7679 -174.83 4.80876 87.956 -24.4976 -1.18821 3.70879 72.2356 -1.08981 -0.349385 28.7808 6.53616e-006 3.62806e-006 170.69 6.29341 69.7084 -8.51911 56.3394 5.86477 39.3015 -5.2275 -3.97124 28.7808 1.06374e-005 1.28174e-005 0.975286 6.26154 -90.7564 14.3702 1.53098 -2.16022 2.69825 1.4344 -2.22478 -19.8352 2.10956 -1.60117 0.177513 2.10957 -1.60119 89.1363 -45.4952 -103.314 17.9416 21.6696 -9.00535 23.2668 24.2941 -53.0132 -3.47815 -0.306412 6.1303 -101.02 -76.3236 70.7507 -1.80481 -25.4683 -6.04829 -4.97199 -19.0151 -23.4799 12.4946 0.552788 0.66325 -19.6629 1.79419 22.1796 -16.6725 1.92853 5.26566 
42.1589 92.0652 -18.1665 96.956 -59.7007 93.8233 -174.926 5.3928 87.2515 -25.538 0.118721 3.73914 72.3313 -0.0769117 0.12782 28.7808 6.53616e-006 3.62806e-006 170.136 5.83327 68.5202 -8.43202 55.9754 5.77402 36.4473 -4.05095 -2.99641 28.7808 1.06374e-005 1.28174e-005 1.11794 6.26251 -90.6144 14.3798 1.82068 -2.22628 2.70799 1.72097 -2.30422 -19.8283 2.40551 -1.57396 0.184299 2.40551 -1.57396 88.6215 -47.162 -103.698 18.8858 20.6959 -8.48221 20.5011 22.8085 -51.1315 -1.3165 -0.0955165 7.34927 -98.7979 -76.9037 73.402 -0.654913 -23.2508 -12.6318 1.85766 -25.6591 -2.84601 20.0601 0.358798 -2.06904 -20.0373 1.70652 20.9075 -19.0161 2.24062 1.8112 
43.2166 92.0769 -19.0478 96.9764 -57.7257 94.2972 -175.045 5.90867 86.8549 -26.4589 1.64333 4.05804 72.2655 0.932685 0.599706 28.7808 6.53616e-006 3.62806e-006 169.696 5.15759 67.6566 -8.18425 54.885 5.51616 32.6276 -2.99093 -2.04494 28.7808 1.06374e-005 1.28174e-005 1.20918 6.27041 -90.5854 14.3704 1.97547 -2.40485 2.69856 1.86774 -2.48942 -19.8385 2.60677 -1.70003 0.174145 2.60678 -1.70005 87.6348 -48.5781 -104.829 19.0167 20.6212 -6.63803 21.4665 22.887 -52.3125 4.01502 0.704764 12.6721 -96.0947 -77.2585 76.525 -0.178187 -22.6315 -7.51556 1.84189 -27.0971 -2.82655 24.6651 0.834258 -0.520776 -20.8413 1.52427 19.7502 -20.2008 2.61058 -1.28835 
44.1275 92.1098 -19.9195 97.072 -55.9053 95.2232 -175.054 6.28581 86.8862 -27.169 3.11537 4.41902 72.481 2.15358 1.17894 28.7808 6.53616e-006 3.62806e-006 169.39 4.43832 67.1793 -7.53745 51.6679 4.84042 28.2144 -2.40692 -1.4666 28.7808 1.06374e-005 1.28174e-005 1.29291 6.311 -90.6483 14.2963 2.06724 -2.65546 2.6241 1.94841 -2.74381 -19.9115 2.76959 -1.91157 0.101143 2.76958 -1.91158 86.5095 -49.9547 -106.156 20.2035 19.3319 -7.21469 18.5897 22.4696 -48.874 4.06536 0.79223 14.7463 -91.5456 -76.9105 81.6031 0.354199 -22.2635 -3.69048 1.74739 -30.1784 -2.89434 22.763 2.02549 5.10235 -21.3288 1.27515 17.8806 -20.7253 2.67164 -3.2275 
